<?xml version="1.0" encoding="UTF-8"?>
<svg width="24px" height="24px" viewBox="0 0 24 24" version="1.1" xmlns="http://www.w3.org/2000/svg" xmlns:xlink="http://www.w3.org/1999/xlink">
    <!-- Generator: Sketch 58 (84663) - https://sketch.com -->
    <title>Group</title>
    <desc>Created with Sketch.</desc>
    <g id="Page-1" stroke="none" stroke-width="1" fill="none" fill-rule="evenodd" stroke-linecap="round" stroke-linejoin="round">
        <g id="User-Careers---User-Profile_-Dashboard_Lab-Progress" transform="translate(-292.000000, -1728.000000)" stroke="#A4B1CD" stroke-width="1.2">
            <g id="Group-18-Copy-6" transform="translate(278.000000, 1709.000000)">
                <g id="Group" transform="translate(14.000000, 19.000000)">
                    <g id="module-puzzle">
                        <path d="M19.5,15.75 L22.811,12.439 C23.3965729,11.8532502 23.3965729,10.9037498 22.811,10.318 L20.7,8.212 C20.0430698,9.77078474 18.4238789,10.6967941 16.747249,10.4725639 C15.070619,10.2483337 13.7516663,8.92938097 13.5274361,7.25275104 C13.3032059,5.57612111 14.2292153,3.95693018 15.788,3.3 L13.682,1.189 C13.0962502,0.603427093 12.1467498,0.603427093 11.561,1.189 L8.25,4.5 C8.25,2.42893219 6.57106781,0.749820319 4.5,0.749820319 C2.42893219,0.749820319 0.749820319,2.42893219 0.749820319,4.5 C0.749820319,6.57106781 2.42893219,8.25 4.5,8.25 L1.189,11.561 C0.603427093,12.1467498 0.603427093,13.0962502 1.189,13.682 L3.3,15.788 C3.95693018,14.2292153 5.57612111,13.3032059 7.25275104,13.5274361 C8.92938097,13.7516663 10.2483337,15.070619 10.4725639,16.747249 C10.6967941,18.4238789 9.77078474,20.0430698 8.212,20.7 L10.318,22.807 C10.9037498,23.3925729 11.8532502,23.3925729 12.439,22.807 L15.75,19.5 C15.75,21.5710678 17.4289322,23.25 19.5,23.25 C21.5710678,23.25 23.2501797,21.5710678 23.2501797,19.5 C23.2501797,17.4289322 21.5710678,15.75 19.5,15.75 Z" id="Shape"></path>
                    </g>
                </g>
            </g>
        </g>
    </g>
</svg>