<?xml version="1.0" encoding="UTF-8"?>
<svg width="24px" height="24px" viewBox="0 0 24 24" version="1.1" xmlns="http://www.w3.org/2000/svg" xmlns:xlink="http://www.w3.org/1999/xlink">
    <!-- Generator: Sketch 59.1 (86144) - https://sketch.com -->
    <title>ic-navbar-labs</title>
    <desc>Created with Sketch.</desc>
    <g id="ic-navbar-labs" stroke="none" stroke-width="1" fill="none" fill-rule="evenodd" stroke-linecap="round" stroke-linejoin="round">
        <g id="Group" transform="translate(0.000000, 2.000000)" stroke="#A4B1CD" stroke-width="1.2">
            <g id="server-2">
                <path d="M4.5,4.725 C4.29289322,4.725 4.125,4.89289322 4.125,5.1 C4.125,5.30710678 4.29289322,5.475 4.5,5.475 C4.70710678,5.475 4.875,5.30710678 4.875,5.1 C4.875,4.89289322 4.70710678,4.725 4.5,4.725 L4.5,4.725" id="Shape"></path>
                <path d="M4.5,13.725 C4.29289322,13.725 4.125,13.8928932 4.125,14.1 C4.125,14.3071068 4.29289322,14.475 4.5,14.475 C4.70710678,14.475 4.875,14.3071068 4.875,14.1 C4.875,13.8928932 4.70710678,13.725 4.5,13.725 L4.5,13.725" id="Shape"></path>
                <path d="M18.751,0.6 C21.2362814,0.6 23.251,2.61471863 23.251,5.1 C23.251,7.58528137 21.2362814,9.6 18.751,9.6 L5.251,9.6 C2.76571863,9.6 0.751,7.58528137 0.751,5.1 C0.751,2.61471863 2.76571863,0.6 5.251,0.6 L18.751,0.6 Z" id="Shape"></path>
                <path d="M18.7510001,9.6 C20.3586952,9.6 21.8442668,10.4576951 22.6481144,11.85 C23.451962,13.2423048 23.451962,14.9576952 22.6481144,16.35 C21.8442668,17.7423049 20.3586952,18.6 18.7510001,18.6 L5.25100009,18.6 C2.76571866,18.6 0.751000095,16.5852813 0.751000095,14.1 C0.751000095,11.6147187 2.76571866,9.6 5.25100009,9.6 L18.7510001,9.6 Z" id="Shape"></path>
                <line x1="10.501" y1="5.1" x2="18.751" y2="5.1" id="Shape"></line>
                <line x1="10.501" y1="14.1" x2="18.751" y2="14.1" id="Shape"></line>
            </g>
        </g>
    </g>
</svg>