<?xml version="1.0" standalone="no"?><!DOCTYPE svg PUBLIC "-//W3C//DTD SVG 1.1//EN" "http://www.w3.org/Graphics/SVG/1.1/DTD/svg11.dtd"><svg t="1652705513932" class="icon" viewBox="0 0 1024 1024" version="1.1" xmlns="http://www.w3.org/2000/svg" p-id="10627" xmlns:xlink="http://www.w3.org/1999/xlink" width="200" height="200"><defs><style type="text/css">@font-face { font-family: feedback-iconfont; src: url("//at.alicdn.com/t/font_1031158_u69w8yhxdu.woff2?t=1630033759944") format("woff2"), url("//at.alicdn.com/t/font_1031158_u69w8yhxdu.woff?t=1630033759944") format("woff"), url("//at.alicdn.com/t/font_1031158_u69w8yhxdu.ttf?t=1630033759944") format("truetype"); }
</style></defs><path d="M458.564923 948.017231H108.297846V73.954462l529.033846 2.264615v144.797538h134.390154l0.068923 0.098462v188.416a36.509538 36.509538 0 0 0 72.999385 0V193.28L675.140923 3.239385 108.307692 0.955077H69.267692C50.510769 0.955077 35.298462 17.299692 35.298462 37.454769v947.042462c0 20.164923 15.222154 36.499692 33.96923 36.499692h389.297231a36.499692 36.499692 0 1 0 0-72.979692z" p-id="10628" fill="#9fef00"></path><path d="M233.393231 312.576a36.499692 36.499692 0 1 0 0 72.989538h331.027692a36.509538 36.509538 0 0 0 0-72.989538h-331.027692z m182.971077 216.093538H233.393231a36.499692 36.499692 0 1 0 0 72.989539h182.951384a36.509538 36.509538 0 0 0 0.019693-72.989539z m569.00923 145.949539a36.48 36.48 0 0 0-18.254769-31.606154L793.068308 542.552615a36.529231 36.529231 0 0 0-36.499693 0L582.547692 643.022769a36.499692 36.499692 0 0 0-18.264615 31.606154v200.96c0 13.046154 6.941538 25.097846 18.264615 31.606154l174.050462 100.48a36.529231 36.529231 0 0 0 36.499692 0l174.050462-100.48a36.499692 36.499692 0 0 0 18.254769-31.606154v-200.96h-0.029539z m-210.510769 259.318154l-137.531077-79.409231V695.748923l137.531077-79.419077 137.511385 79.419077v158.779077l-137.511385 79.409231z" p-id="10629" fill="#9fef00"></path></svg>