<svg width="24" height="24" viewBox="0 0 24 24" fill="none" xmlns="http://www.w3.org/2000/svg">
<path d="M1 22.9412V1" stroke="#A4B1CD" stroke-linecap="round" stroke-linejoin="round"/>
<path d="M22.9412 16.7138V5.27808C22.9408 4.93395 22.7792 4.60987 22.5045 4.4026C22.2298 4.19532 21.8738 4.12882 21.5428 4.22295L19.2326 4.88314C16.7026 5.60579 13.9854 5.23212 11.7443 3.85337C9.44751 2.44002 6.65312 2.08468 4.07566 2.87821L1 3.82314M1 17.5368L4.07566 16.5909C4.55451 16.4435 5.04085 16.3357 5.5301 16.267C6.14367 16.1809 6.76182 16.1562 7.37549 16.1918L1 17.5368Z" stroke="#A4B1CD" stroke-linecap="round" stroke-linejoin="round"/>
<path d="M12.8225 13.5847V23" stroke="white" stroke-linecap="round" stroke-linejoin="round"/>
<path d="M16.5886 13.5847V23" stroke="white" stroke-linecap="round" stroke-linejoin="round"/>
<path d="M9.99786 20.1754H19.4132" stroke="white" stroke-linecap="round" stroke-linejoin="round"/>
<path d="M9.99786 16.4093H19.4132" stroke="white" stroke-linecap="round" stroke-linejoin="round"/>
</svg>
