<svg width="24" height="24" viewBox="0 0 24 24" fill="none" xmlns="http://www.w3.org/2000/svg">
<path d="M1 23V1" stroke="#A4B1CD" stroke-linecap="round" stroke-linejoin="round"/>
<path d="M23 16.7143V5.32147C23 4.92862 22.869 4.66671 22.6071 4.40481C22.3452 4.1429 21.9524 4.1429 21.6905 4.1429L19.3333 4.79766C16.8452 5.58338 14.0952 5.19052 11.7381 3.75004C9.5119 2.44052 6.63095 2.04766 4.01191 2.83338L1 3.75004M1 17.631L4.14286 16.7143C5.19048 16.3215 6.36905 16.1905 7.41667 16.3215L1 17.631Z" stroke="#A4B1CD" stroke-linecap="round" stroke-linejoin="round"/>
<path d="M15.4364 15.635C16.8829 15.635 18.0555 14.4624 18.0555 13.016C18.0555 11.5695 16.8829 10.3969 15.4364 10.3969C13.99 10.3969 12.8174 11.5695 12.8174 13.016C12.8174 14.4624 13.99 15.635 15.4364 15.635Z" stroke="white" stroke-linecap="round" stroke-linejoin="round"/>
<path d="M10.984 22.9684C10.984 20.4803 12.9483 18.516 15.4364 18.516C17.9245 18.516 19.8888 20.4803 19.8888 22.9684H10.984Z" stroke="white" stroke-linecap="round" stroke-linejoin="round"/>
</svg>
