<svg width="24" height="24" viewBox="0 0 24 24" fill="none" xmlns="http://www.w3.org/2000/svg">
<path d="M10.2069 20.0802C9.07958 20.0833 7.99685 19.6401 7.19519 18.8475" stroke="#A4B1CD" stroke-linecap="round" stroke-linejoin="round"/>
<path d="M11.7564 3.23412C11.2823 2.43568 10.8868 1.77378 10.6118 1.32145C10.5258 1.18019 10.3723 1.09399 10.2069 1.09399C10.0415 1.09399 9.88806 1.18019 9.802 1.32145C8.29519 3.79076 3.09485 12.5064 3.09485 15.8424C3.09485 19.7703 6.27903 22.9545 10.2069 22.9545C14.1348 22.9545 17.319 19.7703 17.319 15.8424C17.3173 15.6201 17.299 15.3982 17.264 15.1786" stroke="#A4B1CD" stroke-linecap="round" stroke-linejoin="round"/>
<path d="M16.0402 7.58905C16.9475 7.58905 17.683 6.80105 17.683 5.829C17.683 4.85694 16.9475 4.06894 16.0402 4.06894C15.133 4.06894 14.3975 4.85694 14.3975 5.829C14.3975 6.80105 15.133 7.58905 16.0402 7.58905Z" stroke="white" stroke-linecap="round" stroke-linejoin="round"/>
<path fill-rule="evenodd" clip-rule="evenodd" d="M13.2241 11.7797C13.2241 10.1133 14.4849 8.76242 16.0402 8.76242C17.5955 8.76242 18.8563 10.1133 18.8563 11.7797H13.2241Z" stroke="white" stroke-linecap="round" stroke-linejoin="round"/>
</svg>
